Coordinates
version=1
nRows=49
nColumns=12
inDegrees=yes

Units are S.I. units (second, meters, Newtons, ...)
Angles are in degrees

endheader
time	SC_y	SC_z	SC_x	AC_y	AC_z	AC_x	GH_y	GH_z	GH_yy	EL_x	PS_y
       0.0              -27.69          36.47          13.67          41.68         -11.78         -3.452          85.97          5.167         -139.8           77.7          88.76
   0.03443              -27.69          36.47          13.68          41.68         -11.78         -3.449          85.96          5.169         -139.8          77.71          88.76
   0.06885              -27.69          36.47          13.69          41.68         -11.78         -3.445          85.95           5.17         -139.7          77.71          88.76
    0.1033              -27.68          36.47          13.69          41.69         -11.77         -3.442          85.94          5.172         -139.7          77.72          88.76
    0.1377              -27.68          36.47           13.7          41.69         -11.77         -3.439          85.93          5.175         -139.7          77.72          88.75
    0.1721              -27.68          36.47          13.71          41.69         -11.77         -3.435          85.92          5.177         -139.6          77.73          88.75
    0.2066              -27.68          36.46          13.72           41.7         -11.77         -3.431          85.91          5.179         -139.6          77.74          88.75
     0.241              -27.67          36.46          13.73           41.7         -11.76         -3.427           85.9          5.182         -139.6          77.75          88.75
    0.2754              -27.67          36.46          13.74          41.71         -11.76         -3.422          85.88          5.185         -139.5          77.76          88.75
    0.3098              -27.67          36.46          13.75          41.71         -11.76         -3.417          85.87          5.188         -139.5          77.77          88.75
    0.3443              -27.66          36.46          13.76          41.72         -11.76         -3.412          85.85          5.191         -139.4          77.78          88.75
    0.3787              -27.66          36.46          13.77          41.72         -11.75         -3.406          85.84          5.194         -139.4          77.79          88.75
    0.4131              -27.65          36.45          13.78          41.73         -11.75           -3.4          85.82          5.198         -139.3           77.8          88.75
    0.4476              -27.65          36.45           13.8          41.73         -11.74         -3.393           85.8          5.202         -139.3          77.81          88.75
     0.482              -27.65          36.45          13.81          41.74         -11.74         -3.386          85.78          5.206         -139.2          77.83          88.75
    0.5164              -27.64          36.45          13.83          41.75         -11.73         -3.378          85.76          5.211         -139.2          77.84          88.75
    0.5508              -27.63          36.44          13.84          41.76         -11.73          -3.37          85.73          5.216         -139.1          77.86          88.75
    0.5853              -27.63          36.44          13.86          41.76         -11.72         -3.361          85.71          5.221         -139.0          77.88          88.75
    0.6197              -27.62          36.44          13.88          41.77         -11.72         -3.351          85.68          5.227         -138.9           77.9          88.74
    0.6541              -27.61          36.43          13.91          41.78         -11.71          -3.34          85.64          5.234         -138.8          77.92          88.74
    0.6885              -27.61          36.43          13.93           41.8          -11.7         -3.328          85.61          5.241         -138.7          77.94          88.74
     0.723               -27.6          36.42          13.96          41.81          -11.7         -3.314          85.57          5.249         -138.6          77.97          88.74
    0.7574              -27.59          36.42          13.99          41.82         -11.69           -3.3          85.53          5.258         -138.5           78.0          88.74
    0.7918              -27.58          36.41          14.02          41.84         -11.68         -3.283          85.48          5.268         -138.4          78.03          88.74
    0.8262              -27.56          36.41          14.06          41.86         -11.67         -3.265          85.43          5.279         -138.2          78.06          88.73
    0.8607              -27.55           36.4           14.1          41.87         -11.65         -3.245          85.37          5.291         -138.0           78.1          88.73
    0.8951              -27.53          36.39          14.15           41.9         -11.64         -3.222           85.3          5.305         -137.9          78.15          88.73
    0.9295              -27.52          36.38           14.2          41.92         -11.62         -3.197          85.23           5.32         -137.6           78.2          88.73
     0.964               -27.5          36.37          14.26          41.95         -11.61         -3.168          85.14          5.337         -137.4          78.25          88.72
    0.9984              -27.47          36.36          14.33          41.98         -11.59         -3.136          85.05          5.357         -137.1          78.32          88.72
     1.033              -27.45          36.35          14.41          42.02         -11.56         -3.098          84.94          5.379         -136.8          78.39          88.71
     1.067              -27.42          36.33           14.5          42.06         -11.54         -3.056          84.81          5.405         -136.5          78.47          88.71
     1.102              -27.39          36.31           14.6           42.1         -11.51         -3.006          84.67          5.434         -136.0          78.57           88.7
     1.136              -27.35          36.29          14.72          42.16         -11.47         -2.949           84.5          5.469         -135.6          78.68           88.7
     1.171               -27.3          36.27          14.86          42.22         -11.43         -2.882           84.3          5.509         -135.0          78.81          88.69
     1.205              -27.25          36.24          15.02           42.3         -11.38         -2.803          84.07          5.557         -134.3          78.97          88.68
     1.239              -27.18          36.21          15.21          42.39         -11.32         -2.708           83.8          5.613         -133.6          79.15          88.67
     1.274              -27.11          36.17          15.45           42.5         -11.25         -2.596          83.47          5.681         -132.6          79.37          88.65
     1.308              -27.01          36.12          15.73          42.63         -11.17         -2.459          83.07          5.763         -131.5          79.64          88.64
     1.343               -26.9          36.06          16.07          42.79         -11.07         -2.293          82.58          5.863         -130.1          79.96          88.62
     1.377              -26.76          35.99           16.5          42.98         -10.94         -2.087          81.98          5.987         -128.4          80.36          88.59
     1.412              -26.58           35.9          17.03          43.23         -10.78         -1.831          81.23          6.141         -126.2          80.86          88.56
     1.446              -26.36          35.79           17.7          43.54         -10.58         -1.508          80.29          6.335         -123.5          81.49          88.52
      1.48              -26.08          35.64          18.55          43.93         -10.33         -1.097          79.09          6.582         -120.1          82.29          88.48
     1.515              -25.72          35.46          19.64          44.43         -10.01        -0.5717          77.55          6.898         -115.7          83.32          88.41
     1.549              -25.26          35.22          21.04          45.08          -9.59         0.1027          75.58          7.303         -110.0          84.63          88.33
     1.584              -24.68          34.92          22.82           45.9          -9.06         0.9642          73.06          7.821         -102.8          86.31          88.23
     1.618              -23.94          34.53          25.07          46.94         -8.393          2.047          69.89          8.472         -93.77          88.43           88.1
     1.652              -23.04          34.07           27.8           48.2         -7.579          3.367          66.03          9.265         -82.73           91.0          87.94
